# xmcd
#
# Track frame offsets: 
#        150
#        2085
#        19431
#        33675
#        48900
#        62551
#        75751
#        92381
#        106163
#        123734
#        143552
#        155549
#        173218
#        193485
#        210914
#        231265
#        253485
#        271083
#        290371
#        306788
#        327279
#        344877
#
# Disc length: 4798 seconds
#
# Revision: 0
# Processed by: cddbd v1.5.2PL0 Copyright (c) Steve Scherf et al.
# Submitted via: ExactAudioCopy v0.99pb5
#
DISCID=3a12bc16
DTITLE=G-Bobby Bon Flo - Pale Cho
DYEAR=2009
DGENRE=Hip-Hop
TTITLE0=Intro
TTITLE1=Roule mizik mwen
TTITLE2=Pou rap
TTITLE3=Pou Ayiti (feat. Sargine)
TTITLE4=Nèg yo konnen w
TTITLE5=Sujet lavi
TTITLE6=Club Detay
TTITLE7=Zo ranje
TTITLE8=Eske m rèd
TTITLE9=I shine on 'em
TTITLE10=Men anlè
TTITLE11=Map mache sou do pye yo
TTITLE12=Mwen bezwen yon fanm
TTITLE13=Gang sa
TTITLE14=48 bars
TTITLE15=Se reyalite m
TTITLE16=Running the city
TTITLE17=Bon jan nèg geto
TTITLE18=Ann fè l
TTITLE19=Pwovèb lakay (feat. Cereal)
TTITLE20=Presizyon
TTITLE21=Gen moun ki rele m
EXTD=
EXTT0=
EXTT1=
EXTT2=
EXTT3=
EXTT4=
EXTT5=
EXTT6=
EXTT7=
EXTT8=
EXTT9=
EXTT10=
EXTT11=
EXTT12=
EXTT13=
EXTT14=
EXTT15=
EXTT16=
EXTT17=
EXTT18=
EXTT19=
EXTT20=
EXTT21=
PLAYORDER=
